<svg width="274" height="154" viewBox="0 0 274 154" fill="none" xmlns="http://www.w3.org/2000/svg">
<path d="M204.967 46.4531L253.892 104.728L195.617 153.654C168.598 121.472 172.785 73.4715 204.967 46.4531Z" fill="#EFF6EF"/>
<path d="M263.07 -2.19611C230.888 24.8223 182.888 20.6357 155.869 -11.5464C188.059 -38.5713 236.045 -34.3858 263.07 -2.19611Z" fill="#E4E8E8"/>
<path d="M263.036 -2.29841L311.961 55.977C279.779 82.9954 231.779 78.8088 204.76 46.6267L263.036 -2.29841Z" fill="#EE8632"/>
<path d="M97.831 37.1793L146.756 95.4547L205.031 46.5296L156.106 -11.7458L97.831 37.1793Z" fill="#32D8E0"/>
<path d="M48.9638 -21.0271L97.8889 37.2483L156.164 -11.6768L107.239 -69.9522L48.9638 -21.0271Z" fill="#E4E8E8"/>
<path d="M262.071 -1.48828L310.996 56.7871L369.271 7.86198L320.346 -50.4134L262.071 -1.48828Z" fill="#E5E5E5"/>
<path d="M320.339 -50.4069L369.264 7.86846L310.988 56.7936L303.382 47.7333C280.562 20.5524 284.104 -19.973 311.277 -42.7863L320.345 -50.3993L320.339 -50.4069Z" fill="#E52421"/>
<path d="M95.9204 12.2907C98.0649 10.4904 101.263 10.7693 103.063 12.9137C104.864 15.0582 104.585 18.2563 102.44 20.0567C100.296 21.8571 97.0978 21.5781 95.2974 19.4337C93.497 17.2892 93.776 14.0911 95.9204 12.2907Z" fill="#9D9C15"/>
<path d="M81.4724 -4.9185C83.6169 -6.71888 86.815 -6.43994 88.6154 -4.29549C90.4158 -2.15104 90.1368 1.04709 87.9924 2.84746C85.8479 4.64783 82.6498 4.36888 80.8494 2.22443C79.0555 0.0876427 79.328 -3.11813 81.4724 -4.9185Z" fill="#9D9C15"/>
<path d="M113.827 -2.74236C115.971 -4.54273 119.169 -4.26379 120.97 -2.11934C122.77 0.0251068 122.491 3.22324 120.347 5.02361C118.202 6.82398 115.004 6.54503 113.204 4.40058C111.403 2.25613 111.682 -0.941985 113.827 -2.74236Z" fill="#9D9C15"/>
<path d="M222.471 98.2827C224.616 96.4823 227.814 96.7612 229.614 98.9057C231.415 101.05 231.136 104.248 228.991 106.049C226.847 107.849 223.649 107.57 221.848 105.426C220.048 103.281 220.327 100.083 222.471 98.2827Z" fill="#FF504F"/>
<path d="M210.898 84.497C213.042 82.6966 216.24 82.9756 218.041 85.12C219.841 87.2645 219.562 90.4626 217.418 92.263C215.273 94.0633 212.075 93.7844 210.275 91.6399C208.467 89.5019 208.753 86.2974 210.898 84.497Z" fill="#FF504F"/>
</svg>
