<svg width="204" height="235" viewBox="0 0 204 235" fill="none" xmlns="http://www.w3.org/2000/svg">
<path d="M57.0537 58.3979L-1.22168 107.323L-50.1468 49.0476C-17.9571 22.0227 30.0353 26.2158 57.0537 58.3979Z" fill="#E52421"/>
<path d="M72.9826 193.796L97.4484 222.938L68.3145 247.397C52.2235 260.906 28.2305 258.813 14.7213 242.722C1.2121 226.631 3.30482 202.638 19.3958 189.129C35.4804 175.612 59.4734 177.705 72.9826 193.796Z" fill="#E4E8E8"/>
<path d="M39.1393 271.76L88.0645 330.036L146.34 281.111L97.4147 222.835L39.1393 271.76Z" fill="#2D2D2D"/>
<path d="M-67.7901 262.313L-18.865 320.588L39.4104 271.663L-9.51471 213.388L-67.7901 262.313Z" fill="#EE8632"/>
<path d="M-58.5887 155.355L-9.66357 213.63L48.6118 164.705L-0.313301 106.43L-58.5887 155.355Z" fill="#FF504F"/>
<path d="M41.0052 155.645L48.6118 164.705L-9.66357 213.63L-58.5887 155.355L-49.5284 147.748C-22.3411 124.936 18.1855 128.464 41.0052 155.645Z" fill="#9D9C15"/>
<path d="M154.717 174.726L203.643 233.002L145.367 281.927L138.044 273.204C115.069 245.839 118.629 205.024 145.994 182.05L154.717 174.726Z" fill="#E4E8E8"/>
<path d="M130.316 145.662L154.782 174.803L125.648 199.263C109.557 212.772 85.564 210.679 72.0548 194.588C58.5456 178.497 60.6383 154.504 76.7293 140.995C92.8139 127.478 116.807 129.571 130.316 145.662Z" fill="#2D2D2D"/>
<path d="M122.976 224.603C125.121 222.803 128.319 223.082 130.119 225.226C131.92 227.371 131.641 230.569 129.496 232.369C127.352 234.17 124.154 233.891 122.353 231.746C120.553 229.602 120.832 226.404 122.976 224.603Z" fill="#FF504F"/>
<path d="M143.053 226.354C145.197 224.554 148.395 224.833 150.196 226.977C151.996 229.122 151.717 232.32 149.573 234.12C147.428 235.921 144.23 235.642 142.43 233.497C140.629 231.353 140.908 228.155 143.053 226.354Z" fill="#FF504F"/>
<path d="M-7.70944 148.259C-5.56499 146.458 -2.36686 146.737 -0.566486 148.882C1.23389 151.026 0.954928 154.224 -1.18952 156.025C-3.33397 157.825 -6.53209 157.546 -8.33246 155.402C-10.1328 153.257 -9.85389 150.059 -7.70944 148.259Z" fill="white"/>
<path d="M56.996 58.329C84.0145 90.5111 79.8278 138.511 47.6458 165.53C20.6209 133.34 24.814 85.3475 56.996 58.329Z" fill="#EE8632"/>
</svg>
