<svg width="18" height="19" viewBox="0 0 18 19" fill="none" xmlns="http://www.w3.org/2000/svg">
<path d="M2.74162 0C1.24119 0 0 1.24116 0 2.74162V16.2074C0 17.7078 1.24119 18.949 2.74162 18.949H7.33875C5.75198 17.5562 4.73957 15.5225 4.73957 13.2641C4.73957 12.6099 4.83249 11.9769 4.99116 11.3698H4.74142C4.61703 11.3703 4.49377 11.3462 4.37867 11.2991C4.26357 11.2519 4.15888 11.1826 4.07058 11.095C3.98228 11.0074 3.91211 10.9032 3.86407 10.7885C3.81602 10.6738 3.79103 10.5507 3.79054 10.4263C3.79006 10.3013 3.81431 10.1774 3.86193 10.0619C3.90954 9.94627 3.97957 9.84125 4.06797 9.75286C4.15636 9.66446 4.26136 9.59443 4.37695 9.54682C4.49254 9.4992 4.61641 9.47495 4.74142 9.47544H5.77369C6.19078 8.76148 6.72037 8.12204 7.33875 7.57924H4.74142C4.61703 7.57972 4.49377 7.55572 4.37867 7.50856C4.26357 7.46141 4.15888 7.39205 4.07058 7.30443C3.98228 7.21682 3.91211 7.11268 3.86407 6.99795C3.81602 6.88322 3.79103 6.76015 3.79054 6.63577C3.79006 6.51076 3.81431 6.3869 3.86193 6.27131C3.90954 6.15573 3.97957 6.0507 4.06797 5.96231C4.15636 5.87392 4.26138 5.80389 4.37696 5.75627C4.49255 5.70866 4.61641 5.6844 4.74142 5.68489H8.53196C8.71959 5.68571 8.90275 5.74223 9.0582 5.8473C9.21366 5.95236 9.33441 6.10124 9.40514 6.27502C10.3031 5.89691 11.2876 5.68674 12.317 5.68674C12.6379 5.68674 12.9532 5.71383 13.2641 5.75332V5.68485C13.2641 4.22108 12.6842 2.81835 11.6491 1.78331L11.4808 1.62235C10.4457 0.587351 9.04486 0 7.58109 0H2.74162ZM12.317 7.58109C9.1895 7.58109 6.63392 10.1367 6.63392 13.2641C6.63392 16.3916 9.18954 18.9472 12.317 18.9472C15.4444 18.9472 18 16.3916 18 13.2641C18 10.1367 15.4444 7.58109 12.317 7.58109ZM12.3132 10.4263C12.4376 10.4258 12.5608 10.4498 12.6759 10.497C12.7911 10.5441 12.8958 10.6135 12.9841 10.7011C13.0724 10.7887 13.1426 10.8928 13.1906 11.0076C13.2387 11.1223 13.2636 11.2454 13.2641 11.3698V12.3207H14.2076C14.3321 12.3199 14.4556 12.3438 14.5709 12.3908C14.6862 12.4379 14.7912 12.5072 14.8796 12.5948C14.9681 12.6824 15.0385 12.7867 15.0866 12.9015C15.1348 13.0164 15.1598 13.1396 15.1603 13.2641C15.1598 13.3887 15.1348 13.5119 15.0866 13.6267C15.0385 13.7416 14.9681 13.8458 14.8796 13.9335C14.7912 14.0211 14.6862 14.0904 14.5709 14.1375C14.4556 14.1845 14.3321 14.2083 14.2076 14.2076H12.3133C12.0633 14.2066 11.8239 14.1069 11.6472 13.9302C11.4705 13.7534 11.3708 13.514 11.3698 13.2641V11.3698C11.3708 11.1199 11.4705 10.8805 11.6472 10.7037C11.8239 10.527 12.0633 10.4273 12.3133 10.4263H12.3132Z" fill="black"/>
</svg>
