<svg width="24" height="25" viewBox="0 0 24 25" fill="none" xmlns="http://www.w3.org/2000/svg">
<path d="M18.3702 14.5642C17.5898 15.4917 16.6127 16.23 15.5113 16.7245C14.4098 17.2189 13.2122 17.4569 12.0073 17.4206C10.8046 17.4664 9.60713 17.2387 8.50327 16.7546C7.39941 16.2704 6.41741 15.5421 5.62981 14.6234C3.91694 15.7073 2.50288 17.2102 1.51873 18.9928C0.534572 20.7753 0.0121869 22.7799 0 24.8206H24C23.9977 22.7699 23.48 20.7532 22.4954 18.9595C21.5108 17.1657 20.0914 15.6534 18.3702 14.5642Z" fill="black"/>
<path d="M6.56421 8.20521C6.56416 8.93251 6.70473 9.65271 6.97789 10.3247C7.25105 10.9966 7.65144 11.6072 8.15622 12.1215C8.66099 12.6358 9.26026 13.0437 9.9198 13.3221C10.5793 13.6004 11.2862 13.7437 12.0001 13.7437C12.714 13.7437 13.4209 13.6004 14.0804 13.3221C14.74 13.0437 15.3392 12.6358 15.844 12.1215C16.3488 11.6072 16.7492 10.9966 17.0223 10.3247C17.2955 9.65271 17.4361 8.93251 17.436 8.20521C17.4361 7.47791 17.2955 6.75771 17.0223 6.08576C16.7492 5.41381 16.3488 4.80325 15.844 4.28895C15.3392 3.77465 14.74 3.36668 14.0804 3.08835C13.4209 2.81001 12.714 2.66675 12.0001 2.66675C11.2862 2.66675 10.5793 2.81001 9.9198 3.08835C9.26026 3.36668 8.66099 3.77465 8.15622 4.28895C7.65144 4.80325 7.25105 5.41381 6.97789 6.08576C6.70473 6.75771 6.56416 7.47791 6.56421 8.20521Z" fill="black"/>
<path d="M4.60311 11.0181V5.90102C5.23151 4.46378 6.2624 3.24151 7.57001 2.38333C8.87762 1.52516 10.4054 1.0682 11.9669 1.0682C13.5285 1.0682 15.0563 1.52516 16.3639 2.38333C17.6715 3.24151 18.7024 4.46378 19.3308 5.90102V11.0181C19.9352 10.9859 20.5124 10.7552 20.9738 10.3613C21.4351 9.96738 21.7552 9.43212 21.8847 8.83769C22.0142 8.24325 21.9461 7.6225 21.6909 7.07074C21.4356 6.51898 21.0072 6.06672 20.4716 5.78339C19.787 4.07519 18.6101 2.61179 17.092 1.58123C15.574 0.55066 13.7841 0 11.9523 0C10.1206 0 8.33069 0.55066 6.81261 1.58123C5.29453 2.61179 4.11761 4.07519 3.43308 5.78339C2.86518 6.05216 2.40518 6.50726 2.12873 7.07382C1.85228 7.64038 1.77586 8.28466 1.91202 8.9007C2.04818 9.51674 2.38882 10.0678 2.87792 10.4634C3.36701 10.8589 3.97544 11.0753 4.60311 11.0769V11.0181Z" fill="black"/>
</svg>
